<?xml version="1.0" encoding="UTF-8"?>
<svg width="16px" height="18px" viewBox="0 0 16 18" version="1.1" xmlns="http://www.w3.org/2000/svg" xmlns:xlink="http://www.w3.org/1999/xlink">
    <!-- Generator: sketchtool 58 (101010) - https://sketch.com -->
    <title>D3A22EC4-6075-4935-BB54-DE8123CBEB25@1.00x</title>
    <desc>Created with sketchtool.</desc>
    <defs>
        <filter x="-12.5%" y="-5.3%" width="123.6%" height="110.0%" filterUnits="objectBoundingBox" id="filter-1">
            <feOffset dx="2" dy="2" in="SourceAlpha" result="shadowOffsetOuter1"></feOffset>
            <feGaussianBlur stdDeviation="1" in="shadowOffsetOuter1" result="shadowBlurOuter1"></feGaussianBlur>
            <feColorMatrix values="0 0 0 0 0.775560462   0 0 0 0 0.775560462   0 0 0 0 0.775560462  0 0 0 0.5 0" type="matrix" in="shadowBlurOuter1" result="shadowMatrixOuter1"></feColorMatrix>
            <feMerge>
                <feMergeNode in="shadowMatrixOuter1"></feMergeNode>
                <feMergeNode in="SourceGraphic"></feMergeNode>
            </feMerge>
        </filter>
    </defs>
    <g id="Page-1" stroke="none" stroke-width="1" fill="none" fill-rule="evenodd">
        <g id="D---nudge-diff-tool" transform="translate(-503.000000, -368.000000)">
            <g id="wv-/--menu-/-detach-/-Nudge-Copy" filter="url(#filter-1)" transform="translate(488.000000, 340.000000)">
                <g id="Buttons_palette" transform="translate(8.000000, 23.000000)">
                    <g id="irotate_right" transform="translate(1.000000, 0.000000)">
                        <g id="padding"></g>
                        <path d="M8.76905263,9.97957895 L7.72715789,8.93768421 C7.13252632,9.53157895 6.66315789,10.2603158 6.37063158,11.0443158 L7.75073684,11.5608421 C7.97105263,10.9721053 8.32252632,10.4253684 8.76905263,9.97957895 Z M17.7894737,13.1045263 C17.7894737,11.5291579 17.1764211,10.0495789 16.0623158,8.93768421 C15.1257895,7.99894737 13.9269474,7.422 12.6315789,7.26136842 L12.6315789,5 L8.94736842,7.94736842 L12.6315789,10.8947368 L12.6315789,8.74978947 C13.532,8.90010526 14.3624211,9.32084211 15.0204211,9.97957895 C15.856,10.8144211 16.3157895,11.9241053 16.3157895,13.1052632 C16.3157895,13.106 16.3157895,13.1067368 16.3157895,13.1067368 C16.3157895,13.3498947 16.2914737,13.5893684 16.2524211,13.8266316 C16.2472632,13.8583158 16.2443158,13.8914737 16.2384211,13.9231579 C16.1956842,14.1493684 16.1337895,14.3696842 16.0564211,14.5877895 C15.9031579,15.0188421 15.6835789,15.4241053 15.3998947,15.7917895 C15.282,15.9457895 15.156,16.0953684 15.0196842,16.2316842 C14.8848421,16.3665263 14.7404211,16.4888421 14.5901053,16.6045263 C14.5547368,16.6317895 14.5193684,16.6575789 14.4832632,16.6833684 C14.3410526,16.7872632 14.1936842,16.8830526 14.0404211,16.9692632 C13.6550526,17.1844211 13.2402105,17.3406316 12.8054737,17.4312632 C12.7008421,17.4533684 12.5954737,17.4681053 12.4886316,17.4821053 C12.4429474,17.4887368 12.3987368,17.4975789 12.3530526,17.502 C11.8866316,17.5491579 11.4098947,17.5248421 10.9545263,17.4261053 L10.6421053,18.8666316 C11.0525263,18.9550526 11.474,19 11.8947368,19 C12.1010526,19 12.3066316,18.9882105 12.5092632,18.9668421 C12.5601053,18.9616842 12.6109474,18.9513684 12.6617895,18.9447368 C12.8128421,18.9255789 12.9631579,18.9034737 13.1112632,18.8725263 C13.1245263,18.8695789 13.1370526,18.8688421 13.1503158,18.8658947 L13.1495789,18.8622105 C13.7014737,18.7435789 14.2305263,18.5468421 14.7234737,18.2764211 L14.7242105,18.2771579 C14.7315789,18.2727368 14.7382105,18.2675789 14.7448421,18.2631579 C14.9541053,18.1474737 15.1552632,18.0148421 15.3497895,17.8733684 C15.3969474,17.8394737 15.4433684,17.8048421 15.4890526,17.7694737 C15.688,17.6154737 15.8810526,17.4526316 16.0615789,17.2721053 C16.2443158,17.0901053 16.4078947,16.8941053 16.5633684,16.6936842 C16.5788421,16.6730526 16.5994737,16.6546316 16.6149474,16.634 L16.6105263,16.6310526 C16.9509474,16.1786316 17.2206316,15.6842105 17.4158947,15.1595789 L17.4217895,15.1617895 C17.4431579,15.1043158 17.4586316,15.0453684 17.4777895,14.9871579 C17.5050526,14.9061053 17.5330526,14.8243158 17.5566316,14.7417895 C17.5861053,14.6386316 17.6104211,14.5347368 17.634,14.4301053 C17.6502105,14.3571579 17.6693684,14.2864211 17.6826316,14.2127368 C17.7062105,14.0867368 17.7238947,13.9592632 17.7386316,13.8325263 C17.746,13.7765263 17.7555789,13.722 17.7607368,13.6652632 C17.7776842,13.4817895 17.788,13.2968421 17.788,13.1104211 C17.7894737,13.1089474 17.7894737,13.1074737 17.7894737,13.1045263 L17.7894737,13.1045263 C17.7894737,13.1045263 17.7894737,13.1045263 17.7894737,13.1045263 L17.7894737,13.1045263 Z M8.35568421,15.7556842 L7.17673684,16.6406316 C7.34547368,16.8653684 7.53042105,17.0783158 7.72642105,17.2728421 C8.12505263,17.6714737 8.57747368,18.0104211 9.06968421,18.2801053 L9.77778947,16.9876842 C9.40789474,16.7850526 9.06821053,16.5308421 8.76757895,16.2294737 C8.62094737,16.0835789 8.48242105,15.9236842 8.35568421,15.7556842 Z M7.47368421,13.1052632 C7.47368421,12.9984211 7.47736842,12.8937895 7.48473684,12.7891579 L6.01547368,12.6837895 C6.00515789,12.8230526 6,12.9630526 6,13.1052632 C6,13.8155789 6.12526316,14.5089474 6.37136842,15.1684211 L7.75147368,14.6518947 C7.56726316,14.1589474 7.47368421,13.6387368 7.47368421,13.1052632 Z" id="right" fill="#8C8C8C" fill-rule="nonzero"></path>
                    </g>
                </g>
            </g>
        </g>
    </g>
</svg>